<?xml version="1.0" standalone="no"?>
<!DOCTYPE svg PUBLIC "-//W3C//DTD SVG 20010904//EN"
 "http://www.w3.org/TR/2001/REC-SVG-20010904/DTD/svg10.dtd">
<svg version="1.0" xmlns="http://www.w3.org/2000/svg"
 width="512.000000pt" height="512.000000pt" viewBox="0 0 512.000000 512.000000"
 preserveAspectRatio="xMidYMid meet">
<metadata>
Created by potrace 1.11, written by Peter Selinger 2001-2013
</metadata>
<g transform="translate(0.000000,512.000000) scale(0.100000,-0.100000)"
fill="#000000" stroke="none">
<path d="M2466 5110 c-113 -29 -240 -136 -274 -232 l-17 -48 -175 0 c-203 0
-243 -8 -270 -53 -19 -30 -20 -52 -20 -310 l0 -279 34 -34 34 -34 782 0 782 0
34 34 34 34 0 276 c0 232 -3 282 -16 307 -26 51 -62 59 -268 59 l-184 0 -7 28
c-3 15 -20 48 -36 74 -70 110 -187 177 -317 184 -42 2 -94 -1 -116 -6z m172
-224 c64 -34 104 -98 104 -167 0 -63 -28 -116 -81 -154 -35 -25 -52 -30 -101
-30 -49 0 -66 5 -101 30 -53 38 -80 89 -81 153 0 70 39 133 107 170 28 16 121
15 153 -2z"/>
<path d="M905 4426 c-132 -32 -251 -129 -313 -255 l-37 -76 -3 -1840 c-2
-1367 0 -1854 8 -1895 35 -165 187 -313 358 -349 75 -16 3209 -16 3284 0 81
17 153 55 219 116 69 64 103 118 130 204 18 59 19 126 19 1889 0 1763 -1 1830
-19 1889 -27 85 -61 140 -130 203 -122 114 -179 128 -518 128 l-263 0 0 -110
0 -110 263 0 c254 0 263 -1 313 -24 62 -29 110 -84 129 -150 22 -75 22 -3577
0 -3652 -19 -65 -63 -116 -127 -148 l-52 -26 -1605 0 -1606 0 -51 24 c-62 29
-110 84 -129 150 -22 73 -23 3578 -1 3650 19 62 56 109 114 143 l47 28 270 5
270 5 3 108 3 107 -263 -1 c-171 0 -281 -5 -313 -13z"/>
<path d="M1498 3771 c-81 -26 -135 -61 -196 -125 -169 -178 -169 -454 0 -632
94 -99 198 -144 335 -144 354 0 570 362 408 680 -51 100 -148 181 -263 219
-79 27 -203 28 -284 2z m434 -208 c35 -31 23 -64 -48 -133 -69 -69 -195 -228
-234 -299 -24 -41 -50 -56 -87 -49 -22 4 -243 294 -243 319 0 41 62 73 97 51
7 -4 44 -50 82 -101 38 -51 72 -92 76 -92 3 0 37 40 74 88 37 48 100 121 139
161 76 77 107 89 144 55z"/>
<path d="M2452 3374 c-30 -20 -30 -68 0 -88 20 -14 97 -16 635 -16 600 0 613
0 633 20 11 11 20 29 20 40 0 11 -9 29 -20 40 -20 20 -33 20 -633 20 -538 0
-615 -2 -635 -16z"/>
<path d="M2210 2745 c-7 -8 -12 -26 -12 -40 0 -58 -42 -55 767 -55 706 0 743
1 758 18 22 24 21 55 -1 75 -17 16 -84 17 -759 17 -647 0 -742 -2 -753 -15z"/>
<path d="M1498 2521 c-217 -71 -355 -293 -318 -512 30 -179 168 -333 339 -379
25 -6 81 -12 125 -11 133 0 252 53 337 150 207 235 135 594 -147 728 -70 33
-86 37 -178 40 -79 2 -113 -1 -158 -16z m434 -208 c35 -31 23 -61 -61 -149
-83 -85 -177 -206 -224 -286 -30 -51 -60 -65 -94 -42 -32 20 -233 294 -233
316 0 26 36 58 65 58 31 0 44 -13 123 -123 35 -48 65 -87 66 -87 1 0 32 39 68
88 36 48 100 122 142 165 81 82 111 94 148 60z"/>
<path d="M2453 2125 c-31 -21 -31 -68 -1 -89 20 -14 97 -16 635 -16 600 0 613
0 633 20 24 24 25 49 6 76 -14 18 -34 19 -633 22 -549 2 -620 1 -640 -13z"/>
<path d="M2218 1499 c-21 -12 -24 -69 -6 -87 9 -9 190 -12 753 -12 706 0 743
1 758 18 22 24 21 55 -1 75 -17 16 -83 17 -753 17 -480 -1 -740 -4 -751 -11z"/>
<path d="M1420 883 c-41 -15 -51 -62 -20 -93 20 -20 33 -20 1160 -20 1127 0
1140 0 1160 20 32 32 25 66 -17 89 -16 8 -317 11 -1145 10 -618 0 -1130 -3
-1138 -6z"/>
</g>
</svg>
